<?xml version="1.0" encoding="UTF-8" standalone="no"?>
<svg
   xmlns:dc="http://purl.org/dc/elements/1.1/"
   xmlns:cc="http://creativecommons.org/ns#"
   xmlns:rdf="http://www.w3.org/1999/02/22-rdf-syntax-ns#"
   xmlns:svg="http://www.w3.org/2000/svg"
   xmlns="http://www.w3.org/2000/svg"
   xmlns:sodipodi="http://sodipodi.sourceforge.net/DTD/sodipodi-0.dtd"
   xmlns:inkscape="http://www.inkscape.org/namespaces/inkscape"
   width="210mm"
   height="297mm"
   viewBox="0 0 210 297"
   version="1.1"
   id="svg8"
   inkscape:version="1.0.2 (e86c870879, 2021-01-15)"
   sodipodi:docname="references.svg">
  <defs
     id="defs2" />
  <sodipodi:namedview
     id="base"
     pagecolor="#ffffff"
     bordercolor="#666666"
     borderopacity="1.0"
     inkscape:pageopacity="0.0"
     inkscape:pageshadow="2"
     inkscape:zoom="0.7"
     inkscape:cx="1085.615"
     inkscape:cy="535.99225"
     inkscape:document-units="mm"
     inkscape:current-layer="layer1"
     inkscape:document-rotation="0"
     showgrid="false"
     inkscape:window-width="2560"
     inkscape:window-height="1021"
     inkscape:window-x="0"
     inkscape:window-y="0"
     inkscape:window-maximized="1" />
  <metadata
     id="metadata5">
    <rdf:RDF>
      <cc:Work
         rdf:about="">
        <dc:format>image/svg+xml</dc:format>
        <dc:type
           rdf:resource="http://purl.org/dc/dcmitype/StillImage" />
        <dc:title></dc:title>
      </cc:Work>
    </rdf:RDF>
  </metadata>
  <g
     inkscape:label="Layer 1"
     inkscape:groupmode="layer"
     id="layer1">
    <rect
       style="fill:#ff8080;stroke-width:0.264583"
       id="rect10"
       width="86.208153"
       height="71.405403"
       x="244.07504"
       y="95.069107" />
    <rect
       style="fill:#ddff55;stroke-width:0.325886"
       id="rect12"
       width="83.129921"
       height="90.305885"
       x="454.99225"
       y="167.02324"
       transform="matrix(0.98582234,-0.16779248,-0.18807272,0.98215511,0,0)" />
    <path
       style="fill:none;fill-rule:evenodd;stroke:#000000;stroke-width:0.264583px;stroke-linecap:butt;stroke-linejoin:miter;stroke-opacity:1"
       d="m 383.64288,58.47668 0.35841,143.40068"
       id="path14"
       inkscape:connector-type="polyline"
       inkscape:connector-curvature="0" />
    <path
       style="fill:none;fill-rule:evenodd;stroke:#000000;stroke-width:0.264583px;stroke-linecap:butt;stroke-linejoin:miter;stroke-opacity:1"
       d="m 374.97601,63.372734 157.64817,0.66126"
       id="path14-3"
       inkscape:connector-type="polyline"
       inkscape:connector-curvature="0" />
    <path
       style="fill:#1a1a1a;stroke-width:0.264583"
       id="path36"
       d="m 525.31001,60.998404 c 1.77372,0.855516 3.51568,1.775896 5.24524,2.717027 0.89191,0.561554 1.80361,1.091832 2.66742,1.696609 0.49797,0.398602 0.4309,0.492649 0.0762,0.948838 -0.19217,0.415676 -0.53227,0.710134 -0.91522,0.948544 -0.0978,0.06087 -0.40553,0.218406 -0.30618,0.160116 1.50215,-0.881502 3.00998,-1.753299 4.51496,-2.629945 -0.93904,0.507555 -1.93054,0.882673 -2.9563,1.170267 -0.99372,0.299898 -2.0189,0.483079 -3.01516,0.770745 -0.62569,0.169982 -1.21209,0.446352 -1.81269,0.683921 0,0 -4.4187,3.490109 -4.4187,3.490109 v 0 c 0.58314,-0.266039 1.1779,-0.497571 1.77805,-0.724096 0.98703,-0.343421 2.0192,-0.505675 3.01834,-0.816737 1.04082,-0.232863 2.06066,-0.550513 3.00315,-1.057773 2.09212,-1.195194 5.03973,-1.994238 6.2511,-4.310038 0.23916,-0.667711 0.096,-1.205947 -0.46214,-1.65984 -0.88099,-0.630883 -1.84222,-1.132141 -2.74993,-1.722988 -1.73794,-0.94022 -3.5043,-1.825868 -5.24388,-2.76266 0,0 -4.67429,3.097901 -4.67429,3.097901 z" />
    <path
       style="fill:#1a1a1a;stroke-width:0.264583"
       id="path38"
       d="m 377.63566,197.24512 c 1.43388,1.56726 2.88359,3.121 4.30308,4.70125 0.82841,0.81586 1.47807,1.90323 2.50941,2.48237 3.49464,0.36056 5.8765,-2.99346 7.58701,-5.47663 0.72448,-0.90646 1.22772,-1.97201 1.9219,-2.89546 0.36103,-0.43193 0.53967,-0.97393 0.8558,-1.42886 0,0 -5.15615,2.28512 -5.15615,2.28512 v 0 c -0.25275,0.48659 -0.54692,0.94523 -0.86071,1.39498 -0.60415,0.97343 -1.21468,1.94391 -1.88482,2.87387 -0.45683,0.64945 -0.90148,1.31932 -1.46158,1.88728 -0.15359,0.15573 -0.68514,0.5351 -0.48996,0.43642 3.77669,-1.90929 5.84404,-3.49453 4.16476,-2.22419 -0.0859,-0.01 -0.18034,0.009 -0.25776,-0.0298 -0.66918,-0.33319 -1.57094,-1.71237 -2.16143,-2.19402 -1.43127,-1.56449 -2.89838,-3.09576 -4.26895,-4.71524 0,0 -4.8006,2.9029 -4.8006,2.9029 z" />
    <text
       xml:space="preserve"
       style="font-size:10.5833px;line-height:1.25;font-family:sans-serif;letter-spacing:0px;stroke-width:0.264583"
       x="548.25824"
       y="63.232735"
       id="text42"><tspan
         sodipodi:role="line"
         id="tspan40"
         x="548.25824"
         y="63.232735"
         style="stroke-width:0.264583">Eixo X</tspan></text>
    <text
       xml:space="preserve"
       style="font-size:10.5833px;line-height:1.25;font-family:sans-serif;letter-spacing:0px;stroke-width:0.264583"
       x="369.86108"
       y="217.68033"
       id="text46"><tspan
         sodipodi:role="line"
         id="tspan44"
         x="369.86108"
         y="217.68033"
         style="stroke-width:0.264583">Eixo Y</tspan></text>
    <text
       xml:space="preserve"
       style="font-size:10.5833px;line-height:1.25;font-family:sans-serif;letter-spacing:0px;stroke-width:0.264583"
       x="486.6488"
       y="169.54596"
       id="text50"><tspan
         sodipodi:role="line"
         id="tspan48"
         x="486.6488"
         y="169.54596"
         style="stroke-width:0.264583">p2</tspan></text>
    <text
       xml:space="preserve"
       style="font-size:10.5833px;line-height:1.25;font-family:sans-serif;letter-spacing:0px;stroke-width:0.264583"
       x="500.28076"
       y="75.61705"
       id="text50-5"><tspan
         sodipodi:role="line"
         id="tspan48-3"
         x="500.28076"
         y="75.61705"
         style="stroke-width:0.264583">p1</tspan></text>
    <text
       xml:space="preserve"
       style="font-size:10.5833px;line-height:1.25;font-family:sans-serif;letter-spacing:0px;stroke-width:0.264583"
       x="402.36453"
       y="85.347588"
       id="text50-56"><tspan
         sodipodi:role="line"
         id="tspan48-2"
         x="402.36453"
         y="85.347588"
         style="stroke-width:0.264583">p0</tspan></text>
    <text
       xml:space="preserve"
       style="font-size:10.5833px;line-height:1.25;font-family:sans-serif;letter-spacing:0px;stroke-width:0.264583"
       x="387.64984"
       y="186.14514"
       id="text50-9"><tspan
         sodipodi:role="line"
         id="tspan48-1"
         x="387.64984"
         y="186.14514"
         style="stroke-width:0.264583">p3</tspan></text>
    <path
       style="fill:#ff0000;stroke-width:0.264583"
       id="path114"
       d="m 347.43265,141.93373 c 4.6622,-1.48279 9.39853,-2.73384 14.15542,-3.8739 2.26989,-0.51393 4.55091,-1.01604 6.87213,-1.2266 0,0 4.50821,-3.33253 4.50821,-3.33253 v 0 c -2.39038,0.17874 -4.72993,0.72765 -7.06131,1.26239 -4.70778,1.14026 -9.38887,2.39729 -14.04315,3.73787 0,0 -4.4313,3.43277 -4.4313,3.43277 z" />
    <path
       style="fill:#ff0000;stroke-width:0.264583"
       id="path116"
       d="m 362.82214,127.60114 c 2.0215,1.77558 3.31769,4.12854 4.56867,6.46729 0.30945,0.78722 1.38581,2.23832 1.38671,3.12357 2.3e-4,0.23755 -0.19098,0.31167 -0.34716,0.42247 -1.6228,0.99278 -3.0515,2.25606 -4.4595,3.52798 -0.84868,0.76495 -1.55345,1.65918 -2.29749,2.51959 0,0 5.16213,-2.18665 5.16213,-2.18665 v 0 c 0.71395,-0.85097 1.44473,-1.68717 2.2756,-2.42859 0.9153,-0.81013 1.83666,-1.59423 2.81996,-2.32181 0.15951,-0.11804 1.12149,-0.78289 1.36329,-1.01027 0.11411,-0.1073 0.19865,-0.24225 0.29795,-0.36338 0.0435,-0.13067 0.11107,-0.25566 0.13046,-0.39201 0.15701,-1.10353 -1.13718,-2.68961 -1.53119,-3.64367 -1.28675,-2.37397 -2.61901,-4.74814 -4.58171,-6.64375 0,0 -4.78772,2.92923 -4.78772,2.92923 z" />
  </g>
</svg>
